<?xml version="1.0" encoding="utf-8"?>
<!-- Generator: Adobe Illustrator 25.4.0, SVG Export Plug-In . SVG Version: 6.00 Build 0)  -->
<svg version="1.1" id="Layer_1" xmlns="http://www.w3.org/2000/svg" xmlns:xlink="http://www.w3.org/1999/xlink" x="0px" y="0px"
	 viewBox="0 0 2000 2000" style="enable-background:new 0 0 2000 2000;" xml:space="preserve">
<style type="text/css">
	.st0{fill:none;}
	.st1{fill:#174777;}
</style>
<rect class="st0" width="2000" height="2000"/>
<g>
	<path class="st1" d="M740.12,1121.69h-84.17V839.42h84.17c84.17,0,141.98,50.16,141.98,141.13S824.29,1121.69,740.12,1121.69z"/>
	<path class="st1" d="M1117.23,675.79v607.98H600.14v-5.6h148.47c198.94,0,335.8-113.08,335.8-297.61
		c0-184.49-136.86-297.56-335.8-297.56H600.14v-7.2H1117.23z"/>
</g>
<g>
	<path class="st1" d="M1155.81,1283.74v-71.39c0-48.42,27.52-81.74,72.42-81.74c44.91,0,72.43,33.31,72.43,81.74v71.39H1155.81z
		 M1262.58,1214.42c0-20.49-12.21-34.55-34.35-34.55c-22.14,0-34.35,14.07-34.35,34.55v20.49h68.7V1214.42z"/>
	<path class="st1" d="M1275.41,1016.19v55.04l25.25,9.73v49.66l-144.85-63.31v-48.01l144.85-63.32v50.49L1275.41,1016.19z
		 M1240.24,1029.64l-36.42,14.07l36.42,14.07V1029.64z"/>
	<path class="st1" d="M1228.23,955.97c-44.49,0-75.74-34.14-75.74-80.7c0-28.35,10.35-50.7,28.97-64.98l27.52,30.83
		c-10.76,8.49-16.97,18.62-16.97,31.66c0,20.28,14.07,33.94,36.21,33.94c22.14,0,36.21-13.65,36.21-33.94
		c0-13.04-6.21-23.18-16.97-31.66l27.52-30.83c18.62,14.28,28.97,36.63,28.97,64.98C1303.97,921.83,1272.72,955.97,1228.23,955.97z"
		/>
	<path class="st1" d="M1263.83,675.79h36.83v120.44h-144.85V678.48h36.83v69.74h16.97v-61.25h35.18v61.25h19.04V675.79z"/>
</g>
</svg>
